<?xml version="1.0" encoding="UTF-8" standalone="no"?>
<!-- Created with Inkscape (http://www.inkscape.org/) -->

<svg
   width="192"
   height="192"
   viewBox="0 0 50.8 50.799996"
   version="1.1"
   id="svg3907"
   inkscape:version="1.2 (dc2aedaf03, 2022-05-15)"
   sodipodi:docname="vinopodnos-icon.svg"
   inkscape:export-filename="logo192.png"
   inkscape:export-xdpi="96"
   inkscape:export-ydpi="96"
   xmlns:inkscape="http://www.inkscape.org/namespaces/inkscape"
   xmlns:sodipodi="http://sodipodi.sourceforge.net/DTD/sodipodi-0.dtd"
   xmlns="http://www.w3.org/2000/svg"
   xmlns:svg="http://www.w3.org/2000/svg">
  <sodipodi:namedview
     id="namedview3909"
     pagecolor="#ffffff"
     bordercolor="#000000"
     borderopacity="0.25"
     inkscape:showpageshadow="2"
     inkscape:pageopacity="0.0"
     inkscape:pagecheckerboard="0"
     inkscape:deskcolor="#d1d1d1"
     inkscape:document-units="px"
     showgrid="false"
     inkscape:zoom="0.4204826"
     inkscape:cx="72.535701"
     inkscape:cy="304.41212"
     inkscape:window-width="1366"
     inkscape:window-height="731"
     inkscape:window-x="0"
     inkscape:window-y="0"
     inkscape:window-maximized="1"
     inkscape:current-layer="layer1" />
  <defs
     id="defs3904">
    <linearGradient
       x1="0"
       y1="0"
       x2="1"
       y2="0"
       gradientUnits="userSpaceOnUse"
       gradientTransform="matrix(562.58252,0,0,-562.58252,88.576263,1048.0076)"
       spreadMethod="pad"
       id="linearGradient38">
      <stop
         style="stop-opacity:1;stop-color:#a56e29"
         offset="0"
         id="stop24" />
      <stop
         style="stop-opacity:1;stop-color:#a56e29"
         offset="0.25622812"
         id="stop26" />
      <stop
         style="stop-opacity:1;stop-color:#f8e67f"
         offset="0.542856"
         id="stop28" />
      <stop
         style="stop-opacity:1;stop-color:#f8e67f"
         offset="0.65952697"
         id="stop30" />
      <stop
         style="stop-opacity:1;stop-color:#c8a33e"
         offset="0.830767"
         id="stop32" />
      <stop
         style="stop-opacity:1;stop-color:#c8a33e"
         offset="0.88118163"
         id="stop34" />
      <stop
         style="stop-opacity:1;stop-color:#a56e29"
         offset="1"
         id="stop36" />
    </linearGradient>
    <linearGradient
       x1="0"
       y1="0"
       x2="1"
       y2="0"
       gradientUnits="userSpaceOnUse"
       gradientTransform="matrix(284.63461,0,0,-284.63461,630.84906,1302.0544)"
       spreadMethod="pad"
       id="linearGradient68">
      <stop
         style="stop-opacity:1;stop-color:#a56e29"
         offset="0"
         id="stop54" />
      <stop
         style="stop-opacity:1;stop-color:#a56e29"
         offset="0.25622812"
         id="stop56" />
      <stop
         style="stop-opacity:1;stop-color:#f8e67f"
         offset="0.542856"
         id="stop58" />
      <stop
         style="stop-opacity:1;stop-color:#f8e67f"
         offset="0.65952697"
         id="stop60" />
      <stop
         style="stop-opacity:1;stop-color:#c8a33e"
         offset="0.830767"
         id="stop62" />
      <stop
         style="stop-opacity:1;stop-color:#c8a33e"
         offset="0.88118163"
         id="stop64" />
      <stop
         style="stop-opacity:1;stop-color:#a56e29"
         offset="1"
         id="stop66" />
    </linearGradient>
    <linearGradient
       x1="0"
       y1="0"
       x2="1"
       y2="0"
       gradientUnits="userSpaceOnUse"
       gradientTransform="matrix(104.85329,0,0,-104.85329,276.12039,916.90161)"
       spreadMethod="pad"
       id="linearGradient98">
      <stop
         style="stop-opacity:1;stop-color:#a56e29"
         offset="0"
         id="stop84" />
      <stop
         style="stop-opacity:1;stop-color:#a56e29"
         offset="0.25622812"
         id="stop86" />
      <stop
         style="stop-opacity:1;stop-color:#f8e67f"
         offset="0.542856"
         id="stop88" />
      <stop
         style="stop-opacity:1;stop-color:#f8e67f"
         offset="0.65952697"
         id="stop90" />
      <stop
         style="stop-opacity:1;stop-color:#c8a33e"
         offset="0.830767"
         id="stop92" />
      <stop
         style="stop-opacity:1;stop-color:#c8a33e"
         offset="0.88118163"
         id="stop94" />
      <stop
         style="stop-opacity:1;stop-color:#a56e29"
         offset="1"
         id="stop96" />
    </linearGradient>
    <clipPath
       clipPathUnits="userSpaceOnUse"
       id="clipPath610">
      <path
         d="M 0,2000 H 2000 V 0 H 0 Z"
         id="path608" />
    </clipPath>
    <clipPath
       clipPathUnits="userSpaceOnUse"
       id="clipPath618">
      <path
         d="m 329.718,1155.13 h 192.327 v -13.02 H 329.718 Z"
         id="path616" />
    </clipPath>
    <clipPath
       clipPathUnits="userSpaceOnUse"
       id="clipPath634">
      <path
         d="m 442.831,1117.12 h 79.148 v -43.63 h -79.148 z"
         id="path632" />
    </clipPath>
  </defs>
  <g
     inkscape:label="Vrstva 1"
     inkscape:groupmode="layer"
     id="layer1"
     transform="translate(-292.41229,25.033987)">
    <g
       id="g329"
       transform="matrix(0.17414271,0,0,0.17414271,241.49082,-20.674501)">
      <rect
         style="fill:none;stroke:none;stroke-width:0.265655"
         id="rect4336"
         width="291.71475"
         height="291.71475"
         x="292.41229"
         y="-25.033987" />
      <g
         id="g4282"
         transform="translate(145.04508,153.54373)">
        <g
           id="g12"
           transform="matrix(0.35277777,0,0,-0.35277777,116.11951,340.2589)">
          <g
             id="g14">
            <g
               id="g20">
              <g
                 id="g22">
                <path
                   d="m 457.256,1411.141 c -49.786,-42.021 -99.351,-84.31 -148.533,-127.035 v 0 c -8.245,-7.162 -15.6,-16.2 -20.881,-25.747 v 0 c -10.649,-19.254 -19.931,-39.515 -16.214,-62.54 v 0 c 2.147,-13.304 5.28,-26.487 8.655,-39.548 v 0 c 3.48,-13.467 8.316,-26.59 11.634,-40.092 v 0 c 7.778,-31.664 3.282,-60.775 -16.421,-87.914 v 0 c -9.99,-13.761 -20.157,-24.422 -38.068,-24.843 v 0 c -2.353,-0.056 -4.912,-0.664 -6.977,-1.765 v 0 c -3.98,-2.124 -8.479,-4.078 -11.342,-7.348 v 0 c -10.484,-11.973 -20.213,-24.608 -30.618,-36.655 v 0 c -2.798,-3.237 -6.633,-6.303 -10.602,-7.655 v 0 c -9.053,-3.086 -14.978,-8.171 -16.791,-17.931 v 0 c -0.419,-2.256 -2.812,-4.505 -4.845,-6.024 v 0 c -3.995,-2.986 -9.777,-4.567 -12.204,-8.39 v 0 c -2.479,-3.908 -1.823,-9.806 -2.565,-15.013 v 0 c -11.745,8.229 -23.89,16.885 -36.207,25.29 v 0 c -4.454,3.038 -9.743,5.894 -14.544,1.387 v 0 c -4.559,-4.278 -0.773,-8.935 1.18,-13.219 v 0 c 0.699,-1.532 1.672,-2.935 2.47,-4.422 v 0 c 14.9,-27.782 35.886,-50.805 57.934,-72.824 v 0 c 17.063,-17.041 35.02,-33.195 52.786,-49.518 v 0 c 3.678,-3.38 7.992,-6.406 12.54,-8.383 v 0 c 2.925,-1.274 7.996,-1.714 9.964,-0.028 v 0 c 2.308,1.976 3.486,6.815 3.067,10.151 v 0 c -1.524,12.121 -7.541,22.16 -15.979,30.953 v 0 c -5.998,6.249 -11.82,12.729 -17.107,19.579 v 0 c -4.361,5.649 -6.32,12.336 -5.013,19.051 v 0 c 7.23,-0.576 14.11,-1.689 20.939,-1.442 v 0 c 3.725,0.136 5.108,-1.047 7.404,-3.622 v 0 c 4.883,-5.48 10.839,-9.991 16.141,-15.12 v 0 c 1.976,-1.911 4.389,-4.25 4.839,-6.715 v 0 c 3.697,-20.264 7.164,-40.698 20.595,-57.26 v 0 c 16.403,-20.226 32.925,-40.374 53.77,-56.486 v 0 c 16.957,-13.108 34.898,-25.177 48.314,-42.365 v 0 c 0.343,-0.44 1.184,-0.493 3.573,-1.408 v 0 c -1.747,3.537 -2.417,6.075 -3.97,7.831 v 0 c -6.224,7.036 -11.962,14.792 -19.255,20.537 v 0 c -25.348,19.97 -47.677,42.812 -68.591,67.305 v 0 c -16.254,19.034 -23.196,41.238 -26.026,65.713 v 0 c 11.116,2.967 20.401,7.949 23.161,20.358 v 0 c -7.797,-6.085 -14.732,-13.457 -25.515,-13.033 v 0 c -11.49,0.45 -17.505,8.555 -23.518,16.781 v 0 c 11.287,8.956 15.759,21.667 9.481,28.94 v 0 c -0.928,-2.287 -2.091,-4.068 -2.352,-5.972 v 0 c -2.596,-18.961 -21.902,-21.046 -34.2,-16.013 v 0 c -3.636,1.488 -4.102,3.344 -2.966,6.629 v 0 c 5.56,16.089 15.845,28.838 28.252,41.059 v 0 C 234.1,899.087 252.374,891.16 268.124,880.3 v 0 c 9.032,-6.228 14.896,-13.42 17.957,-23.325 v 0 c 1.698,-5.491 2.424,-11.282 3.579,-16.939 v 0 c 1.494,-7.309 2.704,-14.693 4.61,-21.892 v 0 c 0.703,-2.655 3.041,-4.878 4.634,-7.298 v 0 c 0.822,0.266 1.645,0.531 2.467,0.797 v 0 c 3.389,12.326 -4.705,24.331 -2.826,36.35 v 0 h 17.797 c -7.977,7.232 -21.531,2.997 -23.849,15.971 v 0 h 21.252 c 0.195,0.742 0.388,1.485 0.582,2.227 v 0 c -2.779,1.543 -5.476,3.258 -8.352,4.589 v 0 c -4.808,2.222 -10.123,3.578 -14.532,6.386 v 0 c -15.867,10.11 -31.798,20.187 -46.967,31.286 v 0 c -6.838,5.003 -12.86,11.78 -17.513,18.891 v 0 c -3.359,5.132 -5.233,12.125 -5.32,18.321 v 0 c -0.172,12.227 12.024,21.335 21.694,17.403 v 0 c -10.763,-6.686 -13.059,-10.219 -11.342,-17.458 v 0 c 1.924,-8.114 13.712,-21.007 19.956,-21.152 v 0 c 6.337,-0.146 12.066,1.601 16.067,8.859 v 0 c -2.974,-0.318 -4.916,-0.155 -6.573,-0.765 v 0 c -8.93,-3.286 -14.421,0.911 -19.347,7.878 v 0 c -7.049,9.97 -4.746,16.262 7.421,17.944 v 0 c 2.62,0.362 5.666,-0.547 8.176,-1.647 v 0 c 3.285,-1.437 6.153,-3.804 9.373,-5.429 v 0 c 1.004,-0.507 3.096,-0.386 3.732,0.317 v 0 c 0.689,0.76 0.812,2.918 0.208,3.793 v 0 c -1.744,2.524 -3.979,4.709 -6.534,7.609 v 0 c 8.399,9.114 16.779,18.207 25.852,28.053 v 0 c 13.012,-17.314 32.304,-21.798 50.557,-28.882 v 0 c -5.645,-10.779 -13.874,-17.588 -23.874,-23.112 v 0 c 2.667,-1.156 5.051,-1.92 7.092,-1.38 v 0 c 11.793,3.118 16.601,13.794 23.228,22.566 v 0 c 21.145,-5.699 36.565,-17.462 41.867,-39.059 v 0 c 3.543,-14.433 5.907,-29.251 7.568,-44.034 v 0 c 3.986,-35.459 12.36,-69.342 32.369,-99.525 v 0 c 8.789,-13.258 19.489,-24.575 33.364,-32.583 v 0 c 2.682,-1.548 5.79,-2.361 8.702,-3.513 v 0 c 0.396,0.604 0.793,1.207 1.189,1.81 v 0 c -2.131,2.403 -4.306,4.768 -6.386,7.214 v 0 c -8.731,10.269 -18.304,19.954 -25.988,30.958 v 0 c -25.84,36.998 -32.526,80.215 -36.527,123.545 v 0 c -2.98,32.268 -15.939,52.266 -46.704,62.574 v 0 c -11.664,3.909 -23.795,6.628 -35.088,11.376 v 0 c -9.568,4.022 -18.236,10.185 -29.442,16.632 v 0 c 12.519,12.629 23.438,23.389 34.064,34.432 v 0 c 13.082,13.597 27.349,13.37 43.583,5.844 v 0 c 9.012,-4.179 19.221,-7.974 28.917,-8.039 v 0 c 23.572,-0.16 47.36,0.478 70.674,3.642 v 0 c 18.08,2.453 35.957,8.798 47.825,24.521 v 0 c 9.878,13.086 19.463,26.441 28.389,40.187 v 0 c 22.078,34.002 44.285,67.946 65.291,102.609 v 0 c 12.327,20.341 22.454,42.015 33.561,63.094 v 0 c 1.346,2.552 2.288,5.403 4.024,7.647 v 0 c 4.42,5.714 2.808,10.351 -2.198,14.337 v 0 c -10.762,8.566 -21.667,16.951 -32.482,25.449 v 0 c -7.77,6.105 -15.729,11.999 -23.175,18.478 v 0 c -12.184,10.6 -23.476,22.287 -36.122,32.278 v 0 c -22.334,17.647 -45.371,34.408 -68.178,51.451 v 0 c -7.185,5.37 -11.006,8.19 -14.782,8.189 v 0 c -3.754,0 -7.464,-2.79 -14.388,-8.634 M 245.971,972.971 c 11.931,16.048 23.596,31.884 35.418,47.604 v 0 c 15.693,20.866 26.278,43.657 23.424,70.372 v 0 c -1.555,14.557 -5.224,28.918 -8.399,43.265 v 0 c -4.372,19.764 -9.678,39.332 -13.67,59.168 v 0 c -4.638,23.043 3.587,43.82 15.99,62.128 v 0 c 8.924,13.172 20.9,24.617 32.865,35.321 v 0 c 43.867,39.25 88.205,77.979 132.595,116.64 v 0 c 9.76,8.501 6.888,8.044 16.77,-0.049 v 0 c 23.324,-19.098 46.788,-38.028 70.013,-57.245 v 0 c 29.174,-24.137 58.119,-48.549 87.299,-72.676 v 0 c 3.4,-2.809 4.402,-5.195 2.163,-9.109 v 0 c -11.363,-19.864 -21.918,-40.228 -34.059,-59.599 v 0 c -22.162,-35.36 -45.106,-70.234 -68.004,-105.127 v 0 c -9.126,-13.906 -18.648,-27.584 -28.617,-40.895 v 0 c -10.958,-14.632 -27.473,-19.564 -44.415,-21.381 v 0 c -20.584,-2.207 -41.385,-3.291 -62.081,-3.166 v 0 c -10.046,0.059 -20.636,2.597 -29.982,6.441 v 0 c -19.334,7.951 -36.624,7.642 -51.945,-7.843 v 0 c -9.139,-9.239 -18.374,-18.422 -26.949,-28.173 v 0 c -12.09,-13.746 -23.61,-27.993 -35.715,-42.433 v 0 c -4.62,2.458 -8.621,4.586 -12.701,6.757 m -48.496,-19.796 c 9.397,11.62 18.805,23.235 28.336,34.747 v 0 c 6.459,7.803 16.2,7.49 26.474,10.792 v 0 c -1.767,-2.934 -2.404,-4.613 -3.551,-5.795 v 0 c -8.142,-8.396 -16.663,-16.442 -24.498,-25.109 v 0 c -4.748,-5.254 -8.487,-11.42 -13.845,-18.774 v 0 c -3.633,-0.303 -9.035,-0.752 -15.801,-1.314 v 0 c 1.448,2.778 1.947,4.292 2.885,5.453 m -7.748,-19.548 c -6.103,0.399 -12.34,0.807 -18.495,1.208 v 0 c 2.607,9.558 7.518,10.072 28.649,2.104 v 0 c -2.682,-3.978 -4.915,-7.289 -7.959,-11.805 v 0 c -0.874,3.385 -1.422,5.505 -2.195,8.493 m 12.715,-13.879 c 2.949,5.939 5.393,12.129 8.067,18.205 v 0 c 0.609,-0.104 1.218,-0.206 1.826,-0.309 v 0 c 2.057,-5.186 4.114,-10.372 5.994,-15.113 v 0 c -7.603,-8.778 -15.36,-17.024 -22.299,-25.909 v 0 c -10.392,-13.305 -14.76,-28.498 -12.309,-45.449 v 0 c 1.927,-13.318 10.601,-22.457 19.478,-31.348 v 0 c 7.405,-7.415 14.395,-14.965 17.229,-25.405 v 0 c 0.364,-1.339 0.55,-2.726 -0.017,-4.709 v 0 C 176.158,830.16 128.795,867.564 99.398,922.224 v 0 c 2.224,-1.412 4.55,-2.685 6.654,-4.257 v 0 c 10.431,-7.793 20.79,-15.685 31.202,-23.503 v 0 c 7.398,-5.556 15.357,-6.619 24.857,-6.837 v 0 c 0.388,-0.009 0.771,-0.014 1.152,-0.014 v 0 c 22.522,10e-4 30.928,15.514 39.179,32.135 m -18.209,9.199 c -1.389,-10.706 -6.421,-18.112 -15.614,-23.093 v 0 c -0.785,21.299 -1.545,24.169 15.614,23.093 M 148.367,911.7 c 0.056,6.504 5.773,7.272 11.568,10.029 v 0 c -0.427,-8.534 -0.77,-15.384 -1.157,-23.12 v 0 c -6.522,2.754 -10.466,6.657 -10.411,13.091"
                   style="fill:url(#linearGradient38);stroke:none"
                   id="path40" />
              </g>
            </g>
          </g>
        </g>
        <g
           id="g42"
           transform="matrix(0.35277777,0,0,-0.35277777,116.11951,340.2589)">
          <g
             id="g44">
            <g
               id="g50">
              <g
                 id="g52">
                <path
                   d="m 632.989,1437.605 c 0,-2.008 -0.398,-4.111 0.06,-6.008 v 0 c 5.87,-24.291 2.175,-48.32 -0.687,-72.611 v 0 c -2.042,-17.34 -1.638,-35.075 -0.974,-52.582 v 0 c 0.361,-9.545 5.112,-13.225 14.637,-13.735 v 0 c 6.179,-0.331 12.596,0.259 18.622,1.658 v 0 c 5.706,1.324 9.496,-0.618 11.003,-5.335 v 0 c 2.315,-7.25 4.16,-14.816 4.858,-22.372 v 0 c 0.884,-9.555 4.363,-13.698 13.796,-13.683 v 0 c 8.352,0.012 10.169,-2.345 7.941,-10.297 v 0 c -3.525,-12.576 2.851,-25.435 14.598,-25.812 v 0 c 13.536,-0.435 20.639,-7.13 25.382,-18.529 v 0 c 1.471,-3.534 3.54,-6.895 5.781,-10.016 v 0 c 10.211,-14.22 23.977,-21.681 41.658,-22.407 v 0 c 22.632,-0.929 40.273,9.825 56.918,23.226 v 0 c 19.564,15.748 38.78,32.038 63.866,38.688 v 0 c 1.242,0.328 2.269,1.467 5.036,3.335 v 0 c -4.33,1.281 -7.355,3.218 -9.936,2.742 v 0 c -7.458,-1.377 -15.717,-2.154 -21.891,-6.005 v 0 c -14.901,-9.294 -28.655,-20.405 -43.142,-30.39 v 0 c -9.093,-6.27 -18.019,-13.598 -28.165,-17.365 v 0 c -27.014,-10.028 -47.238,-5.539 -61.019,21.005 v 0 c -1.223,2.355 -2.67,4.603 -3.792,7.004 v 0 c -5.156,11.043 -13.146,17.321 -25.954,17.295 v 0 c -7.891,-0.015 -11.594,4.304 -10.716,12.131 v 0 c 0.458,4.086 2.088,8.771 4.783,11.735 v 0 c 7.754,8.528 16.21,16.432 24.61,24.347 v 0 c 4.188,3.948 8.678,7.491 8.727,15.363 v 0 c -2.847,-1.409 -4.858,-2.414 -6.878,-3.404 v 0 c -14.719,-7.216 -29.427,-14.454 -44.166,-21.629 v 0 c -5.156,-2.51 -8.033,-1.718 -8.194,4.945 v 0 c -0.266,11.059 -3.245,21.348 -11.319,29.897 v 0 c 8.317,6.555 18.469,10.683 21.893,21.904 v 0 c -6.568,-1.91 -12.549,-4.642 -18.101,-8.07 v 0 c -9.615,-5.939 -19.667,-10.285 -31.135,-10.61 v 0 c -8.29,-0.235 -10.977,1.344 -10.94,9.662 v 0 c 0.075,16.832 0.43,33.742 2.138,50.472 v 0 c 2.387,23.409 4.953,46.635 -3.658,69.362 v 0 c -0.902,2.379 -2.433,4.52 -3.672,6.772 v 0 c -0.656,-0.228 -1.312,-0.455 -1.968,-0.683"
                   style="fill:url(#linearGradient68);stroke:none"
                   id="path70" />
              </g>
            </g>
          </g>
        </g>
        <g
           id="g72"
           transform="matrix(0.35277777,0,0,-0.35277777,116.11951,340.2589)">
          <g
             id="g74">
            <g
               id="g80">
              <g
                 id="g82">
                <path
                   d="m 276.362,941.862 c 9.682,-16.234 20.346,-32.273 41.276,-33.674 v 0 c 15.567,-1.041 28.59,-7.415 41.939,-13.998 v 0 c 4.726,-2.331 9.733,-4.15 14.735,-5.839 v 0 c 1.757,-0.593 3.881,-0.095 5.839,-0.095 v 0 c 0.274,0.738 0.548,1.475 0.823,2.212 v 0 c -11.079,6.224 -22.158,12.447 -33.961,19.078 v 0 c 9.311,4.75 17.916,9.14 26.52,13.529 v 0 c -7.445,4.086 -11.023,3.425 -25.419,-2.755 v 0 c -21.624,-9.281 -42.054,-4.618 -57.347,13.104 v 0 c -3.303,3.827 -6.444,7.807 -9.957,11.429 v 0 c -0.854,0.881 -2.881,0.623 -4.369,0.889 v 0 c -0.053,-1.309 -0.641,-2.938 -0.079,-3.88"
                   style="fill:url(#linearGradient98);stroke:none"
                   id="path100" />
              </g>
            </g>
          </g>
        </g>
        <g
           id="g110"
           transform="matrix(0.35277777,0,0,-0.35277777,270.42052,-73.853095)">
          <path
             d="m 0,0 c 26.014,0.9 52.026,1.809 78.041,2.688 3.616,0.123 7.236,0.147 10.855,0.14 19.708,-0.039 23.306,-6.485 27.475,-23.278 1.63,-6.567 0.654,-14.671 -1.666,-21.171 -9.369,-26.239 -27.46,-45.245 -50.936,-60.003 -36.397,-22.88 -76.09,-21.83 -116.259,-17.154 -16.679,1.942 -32.084,7.981 -45.782,18.401 -26.86,20.429 -38.843,48.345 -41.948,80.881 -0.731,7.652 5.116,10.756 11.28,11.863 14.454,2.597 28.982,5.9 43.567,6.415 28.415,1.005 56.889,0.294 85.338,0.294 C -0.023,-0.616 -0.012,-0.308 0,0"
             style="fill:#d71f26;fill-opacity:1;fill-rule:nonzero;stroke:none"
             id="path112" />
        </g>
        <g
           id="g604"
           transform="matrix(0.35277777,0,0,-0.35277777,116.11951,340.2589)">
          <g
             id="g606"
             clip-path="url(#clipPath610)">
            <g
               id="g612">
              <g
                 id="g614" />
              <g
                 id="g626">
                <g
                   clip-path="url(#clipPath618)"
                   opacity="0.5"
                   id="g624">
                  <g
                     transform="translate(332.104,1146.3931)"
                     id="g622">
                    <path
                       d="m 0,0 c 62.607,-6.826 125.856,-5.47 188.131,3.882 3.171,0.477 1.824,5.295 -1.329,4.822 C 124.993,-0.579 62.129,-1.774 0,5 -3.194,5.349 -3.169,0.346 0,0"
                       style="fill:#ffffff;fill-opacity:1;fill-rule:nonzero;stroke:none"
                       id="path620" />
                  </g>
                </g>
              </g>
            </g>
            <g
               id="g628">
              <g
                 id="g630" />
              <g
                 id="g642">
                <g
                   clip-path="url(#clipPath634)"
                   opacity="0.5"
                   id="g640">
                  <g
                     transform="translate(517.8022,1116.2964)"
                     id="g638">
                    <path
                       d="m 0,0 c -18.415,-21.332 -44.496,-35.044 -72.579,-37.79 -3.173,-0.31 -3.206,-5.313 0,-5 29.38,2.873 56.8,16.88 76.115,39.254 C 5.629,-1.111 2.107,2.441 0,0"
                       style="fill:#ffffff;fill-opacity:1;fill-rule:nonzero;stroke:none"
                       id="path636" />
                  </g>
                </g>
              </g>
            </g>
          </g>
        </g>
      </g>
    </g>
  </g>
</svg>
