<?xml version="1.0" encoding="UTF-8" standalone="no"?>
<!-- Created with Inkscape (http://www.inkscape.org/) -->

<svg
   version="1.1"
   id="svg2"
   width="2377.1304"
   height="1016.064"
   viewBox="0 0 2377.1303 1016.0639"
   sodipodi:docname="vinopodnos.svg"
   inkscape:version="1.2 (dc2aedaf03, 2022-05-15)"
   xmlns:inkscape="http://www.inkscape.org/namespaces/inkscape"
   xmlns:sodipodi="http://sodipodi.sourceforge.net/DTD/sodipodi-0.dtd"
   xmlns="http://www.w3.org/2000/svg"
   xmlns:svg="http://www.w3.org/2000/svg">
  <defs
     id="defs6">
    <linearGradient
       x1="0"
       y1="0"
       x2="1"
       y2="0"
       gradientUnits="userSpaceOnUse"
       gradientTransform="matrix(562.58252,0,0,-562.58252,88.576263,1048.0076)"
       spreadMethod="pad"
       id="linearGradient38">
      <stop
         style="stop-opacity:1;stop-color:#a56e29"
         offset="0"
         id="stop24" />
      <stop
         style="stop-opacity:1;stop-color:#a56e29"
         offset="0.25622812"
         id="stop26" />
      <stop
         style="stop-opacity:1;stop-color:#f8e67f"
         offset="0.542856"
         id="stop28" />
      <stop
         style="stop-opacity:1;stop-color:#f8e67f"
         offset="0.65952697"
         id="stop30" />
      <stop
         style="stop-opacity:1;stop-color:#c8a33e"
         offset="0.830767"
         id="stop32" />
      <stop
         style="stop-opacity:1;stop-color:#c8a33e"
         offset="0.88118163"
         id="stop34" />
      <stop
         style="stop-opacity:1;stop-color:#a56e29"
         offset="1"
         id="stop36" />
    </linearGradient>
    <linearGradient
       x1="0"
       y1="0"
       x2="1"
       y2="0"
       gradientUnits="userSpaceOnUse"
       gradientTransform="matrix(284.63461,0,0,-284.63461,630.84906,1302.0544)"
       spreadMethod="pad"
       id="linearGradient68">
      <stop
         style="stop-opacity:1;stop-color:#a56e29"
         offset="0"
         id="stop54" />
      <stop
         style="stop-opacity:1;stop-color:#a56e29"
         offset="0.25622812"
         id="stop56" />
      <stop
         style="stop-opacity:1;stop-color:#f8e67f"
         offset="0.542856"
         id="stop58" />
      <stop
         style="stop-opacity:1;stop-color:#f8e67f"
         offset="0.65952697"
         id="stop60" />
      <stop
         style="stop-opacity:1;stop-color:#c8a33e"
         offset="0.830767"
         id="stop62" />
      <stop
         style="stop-opacity:1;stop-color:#c8a33e"
         offset="0.88118163"
         id="stop64" />
      <stop
         style="stop-opacity:1;stop-color:#a56e29"
         offset="1"
         id="stop66" />
    </linearGradient>
    <linearGradient
       x1="0"
       y1="0"
       x2="1"
       y2="0"
       gradientUnits="userSpaceOnUse"
       gradientTransform="matrix(104.85329,0,0,-104.85329,276.12039,916.90161)"
       spreadMethod="pad"
       id="linearGradient98">
      <stop
         style="stop-opacity:1;stop-color:#a56e29"
         offset="0"
         id="stop84" />
      <stop
         style="stop-opacity:1;stop-color:#a56e29"
         offset="0.25622812"
         id="stop86" />
      <stop
         style="stop-opacity:1;stop-color:#f8e67f"
         offset="0.542856"
         id="stop88" />
      <stop
         style="stop-opacity:1;stop-color:#f8e67f"
         offset="0.65952697"
         id="stop90" />
      <stop
         style="stop-opacity:1;stop-color:#c8a33e"
         offset="0.830767"
         id="stop92" />
      <stop
         style="stop-opacity:1;stop-color:#c8a33e"
         offset="0.88118163"
         id="stop94" />
      <stop
         style="stop-opacity:1;stop-color:#a56e29"
         offset="1"
         id="stop96" />
    </linearGradient>
    <clipPath
       clipPathUnits="userSpaceOnUse"
       id="clipPath108">
      <path
         d="M 0,2000 H 2000 V 0 H 0 Z"
         id="path106" />
    </clipPath>
    <linearGradient
       x1="0"
       y1="0"
       x2="1"
       y2="0"
       gradientUnits="userSpaceOnUse"
       gradientTransform="matrix(79.87635,0,0,-79.87635,633.10919,742.98376)"
       spreadMethod="pad"
       id="linearGradient180">
      <stop
         style="stop-opacity:1;stop-color:#a56e29"
         offset="0"
         id="stop166" />
      <stop
         style="stop-opacity:1;stop-color:#a56e29"
         offset="0.25622812"
         id="stop168" />
      <stop
         style="stop-opacity:1;stop-color:#f8e67f"
         offset="0.542856"
         id="stop170" />
      <stop
         style="stop-opacity:1;stop-color:#f8e67f"
         offset="0.65952697"
         id="stop172" />
      <stop
         style="stop-opacity:1;stop-color:#c8a33e"
         offset="0.830767"
         id="stop174" />
      <stop
         style="stop-opacity:1;stop-color:#c8a33e"
         offset="0.88118163"
         id="stop176" />
      <stop
         style="stop-opacity:1;stop-color:#a56e29"
         offset="1"
         id="stop178" />
    </linearGradient>
    <linearGradient
       x1="0"
       y1="0"
       x2="1"
       y2="0"
       gradientUnits="userSpaceOnUse"
       gradientTransform="matrix(7.4742699,0,0,-7.4742699,748.36554,742.98376)"
       spreadMethod="pad"
       id="linearGradient210">
      <stop
         style="stop-opacity:1;stop-color:#a56e29"
         offset="0"
         id="stop196" />
      <stop
         style="stop-opacity:1;stop-color:#a56e29"
         offset="0.25622812"
         id="stop198" />
      <stop
         style="stop-opacity:1;stop-color:#f8e67f"
         offset="0.542856"
         id="stop200" />
      <stop
         style="stop-opacity:1;stop-color:#f8e67f"
         offset="0.65952697"
         id="stop202" />
      <stop
         style="stop-opacity:1;stop-color:#c8a33e"
         offset="0.830767"
         id="stop204" />
      <stop
         style="stop-opacity:1;stop-color:#c8a33e"
         offset="0.88118163"
         id="stop206" />
      <stop
         style="stop-opacity:1;stop-color:#a56e29"
         offset="1"
         id="stop208" />
    </linearGradient>
    <linearGradient
       x1="0"
       y1="0"
       x2="1"
       y2="0"
       gradientUnits="userSpaceOnUse"
       gradientTransform="matrix(46.934242,0,0,-46.934242,797.38837,742.98376)"
       spreadMethod="pad"
       id="linearGradient240">
      <stop
         style="stop-opacity:1;stop-color:#a56e29"
         offset="0"
         id="stop226" />
      <stop
         style="stop-opacity:1;stop-color:#a56e29"
         offset="0.25622812"
         id="stop228" />
      <stop
         style="stop-opacity:1;stop-color:#f8e67f"
         offset="0.542856"
         id="stop230" />
      <stop
         style="stop-opacity:1;stop-color:#f8e67f"
         offset="0.65952697"
         id="stop232" />
      <stop
         style="stop-opacity:1;stop-color:#c8a33e"
         offset="0.830767"
         id="stop234" />
      <stop
         style="stop-opacity:1;stop-color:#c8a33e"
         offset="0.88118163"
         id="stop236" />
      <stop
         style="stop-opacity:1;stop-color:#a56e29"
         offset="1"
         id="stop238" />
    </linearGradient>
    <linearGradient
       x1="0"
       y1="0"
       x2="1"
       y2="0"
       gradientUnits="userSpaceOnUse"
       gradientTransform="matrix(39.893635,0,0,-39.893635,885.87238,742.98376)"
       spreadMethod="pad"
       id="linearGradient270">
      <stop
         style="stop-opacity:1;stop-color:#a56e29"
         offset="0"
         id="stop256" />
      <stop
         style="stop-opacity:1;stop-color:#a56e29"
         offset="0.25622812"
         id="stop258" />
      <stop
         style="stop-opacity:1;stop-color:#f8e67f"
         offset="0.542856"
         id="stop260" />
      <stop
         style="stop-opacity:1;stop-color:#f8e67f"
         offset="0.65952697"
         id="stop262" />
      <stop
         style="stop-opacity:1;stop-color:#c8a33e"
         offset="0.830767"
         id="stop264" />
      <stop
         style="stop-opacity:1;stop-color:#c8a33e"
         offset="0.88118163"
         id="stop266" />
      <stop
         style="stop-opacity:1;stop-color:#a56e29"
         offset="1"
         id="stop268" />
    </linearGradient>
    <linearGradient
       x1="0"
       y1="0"
       x2="1"
       y2="0"
       gradientUnits="userSpaceOnUse"
       gradientTransform="matrix(49.628822,0,0,-49.628822,1007.8212,742.98376)"
       spreadMethod="pad"
       id="linearGradient300">
      <stop
         style="stop-opacity:1;stop-color:#a56e29"
         offset="0"
         id="stop286" />
      <stop
         style="stop-opacity:1;stop-color:#a56e29"
         offset="0.25622812"
         id="stop288" />
      <stop
         style="stop-opacity:1;stop-color:#f8e67f"
         offset="0.542856"
         id="stop290" />
      <stop
         style="stop-opacity:1;stop-color:#f8e67f"
         offset="0.65952697"
         id="stop292" />
      <stop
         style="stop-opacity:1;stop-color:#c8a33e"
         offset="0.830767"
         id="stop294" />
      <stop
         style="stop-opacity:1;stop-color:#c8a33e"
         offset="0.88118163"
         id="stop296" />
      <stop
         style="stop-opacity:1;stop-color:#a56e29"
         offset="1"
         id="stop298" />
    </linearGradient>
    <linearGradient
       x1="0"
       y1="0"
       x2="1"
       y2="0"
       gradientUnits="userSpaceOnUse"
       gradientTransform="matrix(39.893635,0,0,-39.893635,1095.5247,742.98376)"
       spreadMethod="pad"
       id="linearGradient330">
      <stop
         style="stop-opacity:1;stop-color:#a56e29"
         offset="0"
         id="stop316" />
      <stop
         style="stop-opacity:1;stop-color:#a56e29"
         offset="0.25622812"
         id="stop318" />
      <stop
         style="stop-opacity:1;stop-color:#f8e67f"
         offset="0.542856"
         id="stop320" />
      <stop
         style="stop-opacity:1;stop-color:#f8e67f"
         offset="0.65952697"
         id="stop322" />
      <stop
         style="stop-opacity:1;stop-color:#c8a33e"
         offset="0.830767"
         id="stop324" />
      <stop
         style="stop-opacity:1;stop-color:#c8a33e"
         offset="0.88118163"
         id="stop326" />
      <stop
         style="stop-opacity:1;stop-color:#a56e29"
         offset="1"
         id="stop328" />
    </linearGradient>
    <linearGradient
       x1="0"
       y1="0"
       x2="1"
       y2="0"
       gradientUnits="userSpaceOnUse"
       gradientTransform="matrix(39.893635,0,0,-39.893635,1172.6221,742.98376)"
       spreadMethod="pad"
       id="linearGradient360">
      <stop
         style="stop-opacity:1;stop-color:#a56e29"
         offset="0"
         id="stop346" />
      <stop
         style="stop-opacity:1;stop-color:#a56e29"
         offset="0.25622812"
         id="stop348" />
      <stop
         style="stop-opacity:1;stop-color:#f8e67f"
         offset="0.542856"
         id="stop350" />
      <stop
         style="stop-opacity:1;stop-color:#f8e67f"
         offset="0.65952697"
         id="stop352" />
      <stop
         style="stop-opacity:1;stop-color:#c8a33e"
         offset="0.830767"
         id="stop354" />
      <stop
         style="stop-opacity:1;stop-color:#c8a33e"
         offset="0.88118163"
         id="stop356" />
      <stop
         style="stop-opacity:1;stop-color:#a56e29"
         offset="1"
         id="stop358" />
    </linearGradient>
    <linearGradient
       x1="0"
       y1="0"
       x2="1"
       y2="0"
       gradientUnits="userSpaceOnUse"
       gradientTransform="matrix(7.4742699,0,0,-7.4742699,1248.6775,742.98376)"
       spreadMethod="pad"
       id="linearGradient390">
      <stop
         style="stop-opacity:1;stop-color:#a56e29"
         offset="0"
         id="stop376" />
      <stop
         style="stop-opacity:1;stop-color:#a56e29"
         offset="0.25622812"
         id="stop378" />
      <stop
         style="stop-opacity:1;stop-color:#f8e67f"
         offset="0.542856"
         id="stop380" />
      <stop
         style="stop-opacity:1;stop-color:#f8e67f"
         offset="0.65952697"
         id="stop382" />
      <stop
         style="stop-opacity:1;stop-color:#c8a33e"
         offset="0.830767"
         id="stop384" />
      <stop
         style="stop-opacity:1;stop-color:#c8a33e"
         offset="0.88118163"
         id="stop386" />
      <stop
         style="stop-opacity:1;stop-color:#a56e29"
         offset="1"
         id="stop388" />
    </linearGradient>
    <linearGradient
       x1="0"
       y1="0"
       x2="1"
       y2="0"
       gradientUnits="userSpaceOnUse"
       gradientTransform="matrix(52.323402,0,0,-52.323402,1291.7896,742.98376)"
       spreadMethod="pad"
       id="linearGradient420">
      <stop
         style="stop-opacity:1;stop-color:#a56e29"
         offset="0"
         id="stop406" />
      <stop
         style="stop-opacity:1;stop-color:#a56e29"
         offset="0.25622812"
         id="stop408" />
      <stop
         style="stop-opacity:1;stop-color:#f8e67f"
         offset="0.542856"
         id="stop410" />
      <stop
         style="stop-opacity:1;stop-color:#f8e67f"
         offset="0.65952697"
         id="stop412" />
      <stop
         style="stop-opacity:1;stop-color:#c8a33e"
         offset="0.830767"
         id="stop414" />
      <stop
         style="stop-opacity:1;stop-color:#c8a33e"
         offset="0.88118163"
         id="stop416" />
      <stop
         style="stop-opacity:1;stop-color:#a56e29"
         offset="1"
         id="stop418" />
    </linearGradient>
    <linearGradient
       x1="0"
       y1="0"
       x2="1"
       y2="0"
       gradientUnits="userSpaceOnUse"
       gradientTransform="matrix(39.893635,0,0,-39.893635,1377.8403,742.98376)"
       spreadMethod="pad"
       id="linearGradient450">
      <stop
         style="stop-opacity:1;stop-color:#a56e29"
         offset="0"
         id="stop436" />
      <stop
         style="stop-opacity:1;stop-color:#a56e29"
         offset="0.25622812"
         id="stop438" />
      <stop
         style="stop-opacity:1;stop-color:#f8e67f"
         offset="0.542856"
         id="stop440" />
      <stop
         style="stop-opacity:1;stop-color:#f8e67f"
         offset="0.65952697"
         id="stop442" />
      <stop
         style="stop-opacity:1;stop-color:#c8a33e"
         offset="0.830767"
         id="stop444" />
      <stop
         style="stop-opacity:1;stop-color:#c8a33e"
         offset="0.88118163"
         id="stop446" />
      <stop
         style="stop-opacity:1;stop-color:#a56e29"
         offset="1"
         id="stop448" />
    </linearGradient>
    <linearGradient
       x1="0"
       y1="0"
       x2="1"
       y2="0"
       gradientUnits="userSpaceOnUse"
       gradientTransform="matrix(43.45789,0,0,-43.45789,1454.939,742.98376)"
       spreadMethod="pad"
       id="linearGradient480">
      <stop
         style="stop-opacity:1;stop-color:#a56e29"
         offset="0"
         id="stop466" />
      <stop
         style="stop-opacity:1;stop-color:#a56e29"
         offset="0.25622812"
         id="stop468" />
      <stop
         style="stop-opacity:1;stop-color:#f8e67f"
         offset="0.542856"
         id="stop470" />
      <stop
         style="stop-opacity:1;stop-color:#f8e67f"
         offset="0.65952697"
         id="stop472" />
      <stop
         style="stop-opacity:1;stop-color:#c8a33e"
         offset="0.830767"
         id="stop474" />
      <stop
         style="stop-opacity:1;stop-color:#c8a33e"
         offset="0.88118163"
         id="stop476" />
      <stop
         style="stop-opacity:1;stop-color:#a56e29"
         offset="1"
         id="stop478" />
    </linearGradient>
    <linearGradient
       x1="0"
       y1="0"
       x2="1"
       y2="0"
       gradientUnits="userSpaceOnUse"
       gradientTransform="matrix(49.890194,0,0,-49.890194,1527.777,742.98376)"
       spreadMethod="pad"
       id="linearGradient510">
      <stop
         style="stop-opacity:1;stop-color:#a56e29"
         offset="0"
         id="stop496" />
      <stop
         style="stop-opacity:1;stop-color:#a56e29"
         offset="0.25622812"
         id="stop498" />
      <stop
         style="stop-opacity:1;stop-color:#f8e67f"
         offset="0.542856"
         id="stop500" />
      <stop
         style="stop-opacity:1;stop-color:#f8e67f"
         offset="0.65952697"
         id="stop502" />
      <stop
         style="stop-opacity:1;stop-color:#c8a33e"
         offset="0.830767"
         id="stop504" />
      <stop
         style="stop-opacity:1;stop-color:#c8a33e"
         offset="0.88118163"
         id="stop506" />
      <stop
         style="stop-opacity:1;stop-color:#a56e29"
         offset="1"
         id="stop508" />
    </linearGradient>
    <linearGradient
       x1="0"
       y1="0"
       x2="1"
       y2="0"
       gradientUnits="userSpaceOnUse"
       gradientTransform="matrix(7.453125,0,0,-7.453125,1745.3602,810.87805)"
       spreadMethod="pad"
       id="linearGradient540">
      <stop
         style="stop-opacity:1;stop-color:#a56e29"
         offset="0"
         id="stop526" />
      <stop
         style="stop-opacity:1;stop-color:#a56e29"
         offset="0.25622812"
         id="stop528" />
      <stop
         style="stop-opacity:1;stop-color:#f8e67f"
         offset="0.542856"
         id="stop530" />
      <stop
         style="stop-opacity:1;stop-color:#f8e67f"
         offset="0.65952697"
         id="stop532" />
      <stop
         style="stop-opacity:1;stop-color:#c8a33e"
         offset="0.830767"
         id="stop534" />
      <stop
         style="stop-opacity:1;stop-color:#c8a33e"
         offset="0.88118163"
         id="stop536" />
      <stop
         style="stop-opacity:1;stop-color:#a56e29"
         offset="1"
         id="stop538" />
    </linearGradient>
    <linearGradient
       x1="0"
       y1="0"
       x2="1"
       y2="0"
       gradientUnits="userSpaceOnUse"
       gradientTransform="matrix(51.009766,0,0,-51.009766,1764.7089,832.32971)"
       spreadMethod="pad"
       id="linearGradient570">
      <stop
         style="stop-opacity:1;stop-color:#a56e29"
         offset="0"
         id="stop556" />
      <stop
         style="stop-opacity:1;stop-color:#a56e29"
         offset="0.25622812"
         id="stop558" />
      <stop
         style="stop-opacity:1;stop-color:#f8e67f"
         offset="0.542856"
         id="stop560" />
      <stop
         style="stop-opacity:1;stop-color:#f8e67f"
         offset="0.65952697"
         id="stop562" />
      <stop
         style="stop-opacity:1;stop-color:#c8a33e"
         offset="0.830767"
         id="stop564" />
      <stop
         style="stop-opacity:1;stop-color:#c8a33e"
         offset="0.88118163"
         id="stop566" />
      <stop
         style="stop-opacity:1;stop-color:#a56e29"
         offset="1"
         id="stop568" />
    </linearGradient>
    <linearGradient
       x1="0"
       y1="0"
       x2="1"
       y2="0"
       gradientUnits="userSpaceOnUse"
       gradientTransform="matrix(44.161133,0,0,-44.161133,1827.2626,833.01111)"
       spreadMethod="pad"
       id="linearGradient600">
      <stop
         style="stop-opacity:1;stop-color:#a56e29"
         offset="0"
         id="stop586" />
      <stop
         style="stop-opacity:1;stop-color:#a56e29"
         offset="0.25622812"
         id="stop588" />
      <stop
         style="stop-opacity:1;stop-color:#f8e67f"
         offset="0.542856"
         id="stop590" />
      <stop
         style="stop-opacity:1;stop-color:#f8e67f"
         offset="0.65952697"
         id="stop592" />
      <stop
         style="stop-opacity:1;stop-color:#c8a33e"
         offset="0.830767"
         id="stop594" />
      <stop
         style="stop-opacity:1;stop-color:#c8a33e"
         offset="0.88118163"
         id="stop596" />
      <stop
         style="stop-opacity:1;stop-color:#a56e29"
         offset="1"
         id="stop598" />
    </linearGradient>
    <clipPath
       clipPathUnits="userSpaceOnUse"
       id="clipPath610">
      <path
         d="M 0,2000 H 2000 V 0 H 0 Z"
         id="path608" />
    </clipPath>
    <clipPath
       clipPathUnits="userSpaceOnUse"
       id="clipPath618">
      <path
         d="m 329.718,1155.13 h 192.327 v -13.02 H 329.718 Z"
         id="path616" />
    </clipPath>
    <clipPath
       clipPathUnits="userSpaceOnUse"
       id="clipPath634">
      <path
         d="m 442.831,1117.12 h 79.148 v -43.63 h -79.148 z"
         id="path632" />
    </clipPath>
  </defs>
  <sodipodi:namedview
     id="namedview4"
     pagecolor="#ffffff"
     bordercolor="#000000"
     borderopacity="0.25"
     inkscape:showpageshadow="2"
     inkscape:pageopacity="0.0"
     inkscape:pagecheckerboard="0"
     inkscape:deskcolor="#d1d1d1"
     showgrid="false"
     inkscape:zoom="0.12515789"
     inkscape:cx="2129.3104"
     inkscape:cy="1102.6072"
     inkscape:window-width="1366"
     inkscape:window-height="731"
     inkscape:window-x="0"
     inkscape:window-y="0"
     inkscape:window-maximized="1"
     inkscape:current-layer="g10" />
  <g
     id="g10"
     inkscape:groupmode="layer"
     inkscape:label="Page 1"
     transform="matrix(1.3333333,0,0,-1.3333333,-118.10167,1917.7173)">
    <g
       id="g102">
      <g
         id="g104"
         clip-path="url(#clipPath108)" />
    </g>
    <g
       id="g958">
      <g
         id="g12">
        <g
           id="g14">
          <g
             id="g20">
            <g
               id="g22">
              <path
                 d="m 457.256,1411.141 c -49.786,-42.021 -99.351,-84.31 -148.533,-127.035 v 0 c -8.245,-7.162 -15.6,-16.2 -20.881,-25.747 v 0 c -10.649,-19.254 -19.931,-39.515 -16.214,-62.54 v 0 c 2.147,-13.304 5.28,-26.487 8.655,-39.548 v 0 c 3.48,-13.467 8.316,-26.59 11.634,-40.092 v 0 c 7.778,-31.664 3.282,-60.775 -16.421,-87.914 v 0 c -9.99,-13.761 -20.157,-24.422 -38.068,-24.843 v 0 c -2.353,-0.056 -4.912,-0.664 -6.977,-1.765 v 0 c -3.98,-2.124 -8.479,-4.078 -11.342,-7.348 v 0 c -10.484,-11.973 -20.213,-24.608 -30.618,-36.655 v 0 c -2.798,-3.237 -6.633,-6.303 -10.602,-7.655 v 0 c -9.053,-3.086 -14.978,-8.171 -16.791,-17.931 v 0 c -0.419,-2.256 -2.812,-4.505 -4.845,-6.024 v 0 c -3.995,-2.986 -9.777,-4.567 -12.204,-8.39 v 0 c -2.479,-3.908 -1.823,-9.806 -2.565,-15.013 v 0 c -11.745,8.229 -23.89,16.885 -36.207,25.29 v 0 c -4.454,3.038 -9.743,5.894 -14.544,1.387 v 0 c -4.559,-4.278 -0.773,-8.935 1.18,-13.219 v 0 c 0.699,-1.532 1.672,-2.935 2.47,-4.422 v 0 c 14.9,-27.782 35.886,-50.805 57.934,-72.824 v 0 c 17.063,-17.041 35.02,-33.195 52.786,-49.518 v 0 c 3.678,-3.38 7.992,-6.406 12.54,-8.383 v 0 c 2.925,-1.274 7.996,-1.714 9.964,-0.028 v 0 c 2.308,1.976 3.486,6.815 3.067,10.151 v 0 c -1.524,12.121 -7.541,22.16 -15.979,30.953 v 0 c -5.998,6.249 -11.82,12.729 -17.107,19.579 v 0 c -4.361,5.649 -6.32,12.336 -5.013,19.051 v 0 c 7.23,-0.576 14.11,-1.689 20.939,-1.442 v 0 c 3.725,0.136 5.108,-1.047 7.404,-3.622 v 0 c 4.883,-5.48 10.839,-9.991 16.141,-15.12 v 0 c 1.976,-1.911 4.389,-4.25 4.839,-6.715 v 0 c 3.697,-20.264 7.164,-40.698 20.595,-57.26 v 0 c 16.403,-20.226 32.925,-40.374 53.77,-56.486 v 0 c 16.957,-13.108 34.898,-25.177 48.314,-42.365 v 0 c 0.343,-0.44 1.184,-0.493 3.573,-1.408 v 0 c -1.747,3.537 -2.417,6.075 -3.97,7.831 v 0 c -6.224,7.036 -11.962,14.792 -19.255,20.537 v 0 c -25.348,19.97 -47.677,42.812 -68.591,67.305 v 0 c -16.254,19.034 -23.196,41.238 -26.026,65.713 v 0 c 11.116,2.967 20.401,7.949 23.161,20.358 v 0 c -7.797,-6.085 -14.732,-13.457 -25.515,-13.033 v 0 c -11.49,0.45 -17.505,8.555 -23.518,16.781 v 0 c 11.287,8.956 15.759,21.667 9.481,28.94 v 0 c -0.928,-2.287 -2.091,-4.068 -2.352,-5.972 v 0 c -2.596,-18.961 -21.902,-21.046 -34.2,-16.013 v 0 c -3.636,1.488 -4.102,3.344 -2.966,6.629 v 0 c 5.56,16.089 15.845,28.838 28.252,41.059 v 0 C 234.1,899.087 252.374,891.16 268.124,880.3 v 0 c 9.032,-6.228 14.896,-13.42 17.957,-23.325 v 0 c 1.698,-5.491 2.424,-11.282 3.579,-16.939 v 0 c 1.494,-7.309 2.704,-14.693 4.61,-21.892 v 0 c 0.703,-2.655 3.041,-4.878 4.634,-7.298 v 0 c 0.822,0.266 1.645,0.531 2.467,0.797 v 0 c 3.389,12.326 -4.705,24.331 -2.826,36.35 v 0 h 17.797 c -7.977,7.232 -21.531,2.997 -23.849,15.971 v 0 h 21.252 c 0.195,0.742 0.388,1.485 0.582,2.227 v 0 c -2.779,1.543 -5.476,3.258 -8.352,4.589 v 0 c -4.808,2.222 -10.123,3.578 -14.532,6.386 v 0 c -15.867,10.11 -31.798,20.187 -46.967,31.286 v 0 c -6.838,5.003 -12.86,11.78 -17.513,18.891 v 0 c -3.359,5.132 -5.233,12.125 -5.32,18.321 v 0 c -0.172,12.227 12.024,21.335 21.694,17.403 v 0 c -10.763,-6.686 -13.059,-10.219 -11.342,-17.458 v 0 c 1.924,-8.114 13.712,-21.007 19.956,-21.152 v 0 c 6.337,-0.146 12.066,1.601 16.067,8.859 v 0 c -2.974,-0.318 -4.916,-0.155 -6.573,-0.765 v 0 c -8.93,-3.286 -14.421,0.911 -19.347,7.878 v 0 c -7.049,9.97 -4.746,16.262 7.421,17.944 v 0 c 2.62,0.362 5.666,-0.547 8.176,-1.647 v 0 c 3.285,-1.437 6.153,-3.804 9.373,-5.429 v 0 c 1.004,-0.507 3.096,-0.386 3.732,0.317 v 0 c 0.689,0.76 0.812,2.918 0.208,3.793 v 0 c -1.744,2.524 -3.979,4.709 -6.534,7.609 v 0 c 8.399,9.114 16.779,18.207 25.852,28.053 v 0 c 13.012,-17.314 32.304,-21.798 50.557,-28.882 v 0 c -5.645,-10.779 -13.874,-17.588 -23.874,-23.112 v 0 c 2.667,-1.156 5.051,-1.92 7.092,-1.38 v 0 c 11.793,3.118 16.601,13.794 23.228,22.566 v 0 c 21.145,-5.699 36.565,-17.462 41.867,-39.059 v 0 c 3.543,-14.433 5.907,-29.251 7.568,-44.034 v 0 c 3.986,-35.459 12.36,-69.342 32.369,-99.525 v 0 c 8.789,-13.258 19.489,-24.575 33.364,-32.583 v 0 c 2.682,-1.548 5.79,-2.361 8.702,-3.513 v 0 c 0.396,0.604 0.793,1.207 1.189,1.81 v 0 c -2.131,2.403 -4.306,4.768 -6.386,7.214 v 0 c -8.731,10.269 -18.304,19.954 -25.988,30.958 v 0 c -25.84,36.998 -32.526,80.215 -36.527,123.545 v 0 c -2.98,32.268 -15.939,52.266 -46.704,62.574 v 0 c -11.664,3.909 -23.795,6.628 -35.088,11.376 v 0 c -9.568,4.022 -18.236,10.185 -29.442,16.632 v 0 c 12.519,12.629 23.438,23.389 34.064,34.432 v 0 c 13.082,13.597 27.349,13.37 43.583,5.844 v 0 c 9.012,-4.179 19.221,-7.974 28.917,-8.039 v 0 c 23.572,-0.16 47.36,0.478 70.674,3.642 v 0 c 18.08,2.453 35.957,8.798 47.825,24.521 v 0 c 9.878,13.086 19.463,26.441 28.389,40.187 v 0 c 22.078,34.002 44.285,67.946 65.291,102.609 v 0 c 12.327,20.341 22.454,42.015 33.561,63.094 v 0 c 1.346,2.552 2.288,5.403 4.024,7.647 v 0 c 4.42,5.714 2.808,10.351 -2.198,14.337 v 0 c -10.762,8.566 -21.667,16.951 -32.482,25.449 v 0 c -7.77,6.105 -15.729,11.999 -23.175,18.478 v 0 c -12.184,10.6 -23.476,22.287 -36.122,32.278 v 0 c -22.334,17.647 -45.371,34.408 -68.178,51.451 v 0 c -7.185,5.37 -11.006,8.19 -14.782,8.189 v 0 c -3.754,0 -7.464,-2.79 -14.388,-8.634 M 245.971,972.971 c 11.931,16.048 23.596,31.884 35.418,47.604 v 0 c 15.693,20.866 26.278,43.657 23.424,70.372 v 0 c -1.555,14.557 -5.224,28.918 -8.399,43.265 v 0 c -4.372,19.764 -9.678,39.332 -13.67,59.168 v 0 c -4.638,23.043 3.587,43.82 15.99,62.128 v 0 c 8.924,13.172 20.9,24.617 32.865,35.321 v 0 c 43.867,39.25 88.205,77.979 132.595,116.64 v 0 c 9.76,8.501 6.888,8.044 16.77,-0.049 v 0 c 23.324,-19.098 46.788,-38.028 70.013,-57.245 v 0 c 29.174,-24.137 58.119,-48.549 87.299,-72.676 v 0 c 3.4,-2.809 4.402,-5.195 2.163,-9.109 v 0 c -11.363,-19.864 -21.918,-40.228 -34.059,-59.599 v 0 c -22.162,-35.36 -45.106,-70.234 -68.004,-105.127 v 0 c -9.126,-13.906 -18.648,-27.584 -28.617,-40.895 v 0 c -10.958,-14.632 -27.473,-19.564 -44.415,-21.381 v 0 c -20.584,-2.207 -41.385,-3.291 -62.081,-3.166 v 0 c -10.046,0.059 -20.636,2.597 -29.982,6.441 v 0 c -19.334,7.951 -36.624,7.642 -51.945,-7.843 v 0 c -9.139,-9.239 -18.374,-18.422 -26.949,-28.173 v 0 c -12.09,-13.746 -23.61,-27.993 -35.715,-42.433 v 0 c -4.62,2.458 -8.621,4.586 -12.701,6.757 m -48.496,-19.796 c 9.397,11.62 18.805,23.235 28.336,34.747 v 0 c 6.459,7.803 16.2,7.49 26.474,10.792 v 0 c -1.767,-2.934 -2.404,-4.613 -3.551,-5.795 v 0 c -8.142,-8.396 -16.663,-16.442 -24.498,-25.109 v 0 c -4.748,-5.254 -8.487,-11.42 -13.845,-18.774 v 0 c -3.633,-0.303 -9.035,-0.752 -15.801,-1.314 v 0 c 1.448,2.778 1.947,4.292 2.885,5.453 m -7.748,-19.548 c -6.103,0.399 -12.34,0.807 -18.495,1.208 v 0 c 2.607,9.558 7.518,10.072 28.649,2.104 v 0 c -2.682,-3.978 -4.915,-7.289 -7.959,-11.805 v 0 c -0.874,3.385 -1.422,5.505 -2.195,8.493 m 12.715,-13.879 c 2.949,5.939 5.393,12.129 8.067,18.205 v 0 c 0.609,-0.104 1.218,-0.206 1.826,-0.309 v 0 c 2.057,-5.186 4.114,-10.372 5.994,-15.113 v 0 c -7.603,-8.778 -15.36,-17.024 -22.299,-25.909 v 0 c -10.392,-13.305 -14.76,-28.498 -12.309,-45.449 v 0 c 1.927,-13.318 10.601,-22.457 19.478,-31.348 v 0 c 7.405,-7.415 14.395,-14.965 17.229,-25.405 v 0 c 0.364,-1.339 0.55,-2.726 -0.017,-4.709 v 0 C 176.158,830.16 128.795,867.564 99.398,922.224 v 0 c 2.224,-1.412 4.55,-2.685 6.654,-4.257 v 0 c 10.431,-7.793 20.79,-15.685 31.202,-23.503 v 0 c 7.398,-5.556 15.357,-6.619 24.857,-6.837 v 0 c 0.388,-0.009 0.771,-0.014 1.152,-0.014 v 0 c 22.522,10e-4 30.928,15.514 39.179,32.135 m -18.209,9.199 c -1.389,-10.706 -6.421,-18.112 -15.614,-23.093 v 0 c -0.785,21.299 -1.545,24.169 15.614,23.093 M 148.367,911.7 c 0.056,6.504 5.773,7.272 11.568,10.029 v 0 c -0.427,-8.534 -0.77,-15.384 -1.157,-23.12 v 0 c -6.522,2.754 -10.466,6.657 -10.411,13.091"
                 style="fill:url(#linearGradient38);stroke:none"
                 id="path40" />
            </g>
          </g>
        </g>
      </g>
      <g
         id="g42">
        <g
           id="g44">
          <g
             id="g50">
            <g
               id="g52">
              <path
                 d="m 632.989,1437.605 c 0,-2.008 -0.398,-4.111 0.06,-6.008 v 0 c 5.87,-24.291 2.175,-48.32 -0.687,-72.611 v 0 c -2.042,-17.34 -1.638,-35.075 -0.974,-52.582 v 0 c 0.361,-9.545 5.112,-13.225 14.637,-13.735 v 0 c 6.179,-0.331 12.596,0.259 18.622,1.658 v 0 c 5.706,1.324 9.496,-0.618 11.003,-5.335 v 0 c 2.315,-7.25 4.16,-14.816 4.858,-22.372 v 0 c 0.884,-9.555 4.363,-13.698 13.796,-13.683 v 0 c 8.352,0.012 10.169,-2.345 7.941,-10.297 v 0 c -3.525,-12.576 2.851,-25.435 14.598,-25.812 v 0 c 13.536,-0.435 20.639,-7.13 25.382,-18.529 v 0 c 1.471,-3.534 3.54,-6.895 5.781,-10.016 v 0 c 10.211,-14.22 23.977,-21.681 41.658,-22.407 v 0 c 22.632,-0.929 40.273,9.825 56.918,23.226 v 0 c 19.564,15.748 38.78,32.038 63.866,38.688 v 0 c 1.242,0.328 2.269,1.467 5.036,3.335 v 0 c -4.33,1.281 -7.355,3.218 -9.936,2.742 v 0 c -7.458,-1.377 -15.717,-2.154 -21.891,-6.005 v 0 c -14.901,-9.294 -28.655,-20.405 -43.142,-30.39 v 0 c -9.093,-6.27 -18.019,-13.598 -28.165,-17.365 v 0 c -27.014,-10.028 -47.238,-5.539 -61.019,21.005 v 0 c -1.223,2.355 -2.67,4.603 -3.792,7.004 v 0 c -5.156,11.043 -13.146,17.321 -25.954,17.295 v 0 c -7.891,-0.015 -11.594,4.304 -10.716,12.131 v 0 c 0.458,4.086 2.088,8.771 4.783,11.735 v 0 c 7.754,8.528 16.21,16.432 24.61,24.347 v 0 c 4.188,3.948 8.678,7.491 8.727,15.363 v 0 c -2.847,-1.409 -4.858,-2.414 -6.878,-3.404 v 0 c -14.719,-7.216 -29.427,-14.454 -44.166,-21.629 v 0 c -5.156,-2.51 -8.033,-1.718 -8.194,4.945 v 0 c -0.266,11.059 -3.245,21.348 -11.319,29.897 v 0 c 8.317,6.555 18.469,10.683 21.893,21.904 v 0 c -6.568,-1.91 -12.549,-4.642 -18.101,-8.07 v 0 c -9.615,-5.939 -19.667,-10.285 -31.135,-10.61 v 0 c -8.29,-0.235 -10.977,1.344 -10.94,9.662 v 0 c 0.075,16.832 0.43,33.742 2.138,50.472 v 0 c 2.387,23.409 4.953,46.635 -3.658,69.362 v 0 c -0.902,2.379 -2.433,4.52 -3.672,6.772 v 0 c -0.656,-0.228 -1.312,-0.455 -1.968,-0.683"
                 style="fill:url(#linearGradient68);stroke:none"
                 id="path70" />
            </g>
          </g>
        </g>
      </g>
      <g
         id="g72">
        <g
           id="g74">
          <g
             id="g80">
            <g
               id="g82">
              <path
                 d="m 276.362,941.862 c 9.682,-16.234 20.346,-32.273 41.276,-33.674 v 0 c 15.567,-1.041 28.59,-7.415 41.939,-13.998 v 0 c 4.726,-2.331 9.733,-4.15 14.735,-5.839 v 0 c 1.757,-0.593 3.881,-0.095 5.839,-0.095 v 0 c 0.274,0.738 0.548,1.475 0.823,2.212 v 0 c -11.079,6.224 -22.158,12.447 -33.961,19.078 v 0 c 9.311,4.75 17.916,9.14 26.52,13.529 v 0 c -7.445,4.086 -11.023,3.425 -25.419,-2.755 v 0 c -21.624,-9.281 -42.054,-4.618 -57.347,13.104 v 0 c -3.303,3.827 -6.444,7.807 -9.957,11.429 v 0 c -0.854,0.881 -2.881,0.623 -4.369,0.889 v 0 c -0.053,-1.309 -0.641,-2.938 -0.079,-3.88"
                 style="fill:url(#linearGradient98);stroke:none"
                 id="path100" />
            </g>
          </g>
        </g>
      </g>
      <g
         id="g110"
         transform="translate(437.3887,1173.8608)">
        <path
           d="m 0,0 c 26.014,0.9 52.026,1.809 78.041,2.688 3.616,0.123 7.236,0.147 10.855,0.14 19.708,-0.039 23.306,-6.485 27.475,-23.278 1.63,-6.567 0.654,-14.671 -1.666,-21.171 -9.369,-26.239 -27.46,-45.245 -50.936,-60.003 -36.397,-22.88 -76.09,-21.83 -116.259,-17.154 -16.679,1.942 -32.084,7.981 -45.782,18.401 -26.86,20.429 -38.843,48.345 -41.948,80.881 -0.731,7.652 5.116,10.756 11.28,11.863 14.454,2.597 28.982,5.9 43.567,6.415 28.415,1.005 56.889,0.294 85.338,0.294 C -0.023,-0.616 -0.012,-0.308 0,0"
           style="fill:#d71f26;fill-opacity:1;fill-rule:nonzero;stroke:none"
           id="path112" />
      </g>
      <g
         id="g114"
         transform="translate(593.6035,924.82907)">
        <path
           d="m 0,0 v -1.755 h -1.527 c -5.298,0 -11.701,-3.121 -15.228,-10.771 l -41.804,-93.723 c 0,0 -6.438,-14.084 -6.438,-17.906 h -1.566 l -48.857,111.499 c -3.515,7.745 -9.948,10.902 -15.339,10.902 h -1.391 v 1.756 h 39.148 v -1.739 h -1.529 c -4.485,0 -9.097,-3.899 -6.568,-10.848 l 36.427,-91.078 37.817,91.066 c 2.537,6.957 -2.119,10.86 -6.607,10.86 h -1.529 v 1.739 z"
           style="fill:#d71f26;fill-opacity:1;fill-rule:nonzero;stroke:none"
           id="path116" />
      </g>
      <g
         id="g118"
         transform="translate(604.8765,803.1094)">
        <path
           d="m 0,0 0.033,1.739 h 2.318 c 6.466,0 11.686,4.198 11.817,9.414 v 82.001 c -0.131,5.221 -5.354,9.425 -11.825,9.425 h -2.32 l -0.032,1.739 h 39.384 v -1.739 h -2.342 c -6.322,0 -11.483,-4.038 -11.79,-9.115 V 11.017 c 0.205,-5.153 5.41,-9.278 11.799,-9.278 h 2.319 L 39.395,0 Z"
           style="fill:#d71f26;fill-opacity:1;fill-rule:nonzero;stroke:none"
           id="path120" />
      </g>
      <g
         id="g122"
         transform="translate(791.77877,907.42187)">
        <path
           d="m 0,0 -0.024,-1.739 h -2.892 c -5.152,0 -9.361,-3.847 -9.663,-8.699 v -74.134 c 0,-11.2 1.651,-22.179 1.651,-22.179 h -1.655 l -90.418,85.793 v -72.541 c 0.097,-5.031 4.389,-9.084 9.678,-9.084 h 2.895 l 0.019,-1.738 h -32.862 l 0.025,1.738 h 2.893 c 5.29,0 9.579,4.053 9.681,9.084 v 74.38 c 0,11.869 -1.666,21.72 -1.666,21.72 l 1.867,-0.088 90.217,-85.028 v 72.092 c -0.313,4.846 -4.519,8.686 -9.666,8.686 h -2.891 l -0.024,1.738 z"
           style="fill:#d71f26;fill-opacity:1;fill-rule:nonzero;stroke:none"
           id="path124" />
      </g>
      <g
         id="g126"
         transform="translate(918.81452,855.2632)">
        <path
           d="M 0,0 C 0,29.396 -20.214,49.389 -45.784,49.389 -71.36,49.389 -91.57,29.396 -91.57,0 c 0,-29.395 20.21,-49.386 45.786,-49.386 C -20.214,-49.386 0,-29.395 0,0 m 12.876,0.001 c 0,-32.308 -26.23,-54.588 -58.66,-54.588 -32.436,0 -58.667,22.28 -58.667,54.588 0,32.309 26.231,54.59 58.667,54.59 32.43,0 58.66,-22.281 58.66,-54.59"
           style="fill:#d71f26;fill-opacity:1;fill-rule:nonzero;stroke:none"
           id="path128" />
      </g>
      <g
         id="g130"
         transform="translate(1032.4629,924.7993)">
        <path
           d="m 0,0 c 22.226,0 35.85,-12.758 35.85,-33.576 0,-26.498 -28.763,-40.608 -50.575,-29.111 l -0.021,1.644 c 0,0 28.6,-6.171 36.447,18.73 0.771,2.448 1.216,6.643 1.111,10.487 -0.434,15.968 -8.65,26.613 -23.438,26.613 h -20.041 v -103.814 c 0.112,-6.055 5.049,-10.931 11.134,-10.931 h 2.2 l 0.027,-1.739 h -38.055 l 0.028,1.739 h 2.2 c 6.084,0 11.022,4.876 11.141,10.931 v 97.285 c -0.565,5.626 -5.307,10.02 -11.082,10.02 h -2.198 L -45.3,0.005 Z"
           style="fill:#d71f26;fill-opacity:1;fill-rule:nonzero;stroke:none"
           id="path132" />
      </g>
      <g
         id="g134"
         transform="translate(1196.5581,855.2632)">
        <path
           d="M 0,0 C 0,29.396 -20.215,49.389 -45.786,49.389 -71.36,49.389 -91.57,29.396 -91.57,0 c 0,-29.395 20.21,-49.386 45.784,-49.386 C -20.215,-49.386 0,-29.395 0,0 m 12.876,0.001 c 0,-32.308 -26.23,-54.588 -58.662,-54.588 -32.434,0 -58.664,22.28 -58.664,54.588 0,32.309 26.23,54.59 58.664,54.59 32.432,0 58.662,-22.281 58.662,-54.59"
           style="fill:#d71f26;fill-opacity:1;fill-rule:nonzero;stroke:none"
           id="path136" />
      </g>
      <g
         id="g138"
         transform="translate(1257.0298,808.38092)">
        <path
           d="m 0,0 h 34.66 c 26.695,0 43.239,17.788 43.239,46.813 0,29.128 -16.548,46.981 -43.239,46.981 H 0 Z m 34.573,99.016 c 34.288,0 55.895,-19.836 55.895,-52.2 0,-32.298 -21.607,-52.094 -55.895,-52.094 h -57.989 l 0.03,1.738 h 2.313 c 5.48,0 9.601,4.26 9.753,9.437 v 82.036 c -0.178,5.487 -4.477,9.378 -9.934,9.378 h -2.129 l -0.031,1.723 z"
           style="fill:#d71f26;fill-opacity:1;fill-rule:nonzero;stroke:none"
           id="path140" />
      </g>
      <g
         id="g142"
         transform="translate(1493.3604,907.42187)">
        <path
           d="m 0,0 -0.024,-1.739 h -2.892 c -5.152,0 -9.362,-3.847 -9.663,-8.699 v -74.134 c 0,-11.2 1.651,-22.179 1.651,-22.179 h -1.655 l -90.418,85.793 v -72.541 c 0.096,-5.031 4.389,-9.084 9.678,-9.084 h 2.893 l 0.022,-1.738 h -32.863 l 0.023,1.738 h 2.895 c 5.289,0 9.579,4.053 9.682,9.084 v 74.38 c 0,11.869 -1.667,21.72 -1.667,21.72 l 1.868,-0.088 90.217,-85.028 v 72.092 c -0.314,4.846 -4.52,8.686 -9.667,8.686 h -2.891 l -0.024,1.738 z"
           style="fill:#d71f26;fill-opacity:1;fill-rule:nonzero;stroke:none"
           id="path144" />
      </g>
      <g
         id="g146"
         transform="translate(1620.3975,855.2632)">
        <path
           d="M 0,0 C 0,29.396 -20.215,49.389 -45.786,49.389 -71.361,49.389 -91.57,29.396 -91.57,0 c 0,-29.395 20.209,-49.386 45.784,-49.386 C -20.215,-49.386 0,-29.395 0,0 m 12.875,0.001 c 0,-32.308 -26.231,-54.588 -58.661,-54.588 -32.434,0 -58.665,22.28 -58.665,54.588 0,32.309 26.231,54.59 58.665,54.59 32.43,0 58.661,-22.281 58.661,-54.59"
           style="fill:#d71f26;fill-opacity:1;fill-rule:nonzero;stroke:none"
           id="path148" />
      </g>
      <g
         id="g150"
         transform="translate(1713.5225,847.3423)">
        <path
           d="m 0,0 c 5.358,-4.501 7.812,-11.917 7.871,-18.677 0.137,-15.512 -13.618,-27.99 -30.772,-27.99 -10.302,0 -23.657,2.513 -29.99,8.188 -1.095,4.627 -0.648,14.868 1.727,21.588 h 2.004 c -1.536,-15.663 9.009,-24.998 24.348,-24.562 14.373,0.409 23.166,7.9 23.166,19.198 0,5.414 -1.854,9.838 -6.334,13.761 l -34.777,26.836 c -6.472,5.528 -8.217,12.753 -8.306,18.787 -0.209,14.125 12.648,25.383 28.742,25.383 7.962,0 13.31,-0.71 17.198,-1.61 H 0.688 L 0.95,41.99 h -1.992 c 0,9.633 -6.446,15.372 -20.088,15.372 -11.612,0 -20.961,-7.34 -20.894,-16.582 0.032,-4.469 1.381,-9.311 6.833,-13.691 z"
           style="fill:#d71f26;fill-opacity:1;fill-rule:nonzero;stroke:none"
           id="path152" />
      </g>
      <g
         id="g154">
        <g
           id="g156">
          <g
             id="g162">
            <g
               id="g164">
              <path
                 d="m 705.075,772.969 -13.296,-53.366 -13.561,52.498 H 668.137 L 654.23,719.69 641.626,772.969 h -8.517 l 15.818,-59.972 h 9.909 l 14.081,51.716 13.559,-51.716 h 9.822 l 16.687,59.972 z"
                 style="fill:url(#linearGradient180);stroke:none"
                 id="path182" />
            </g>
          </g>
        </g>
      </g>
      <g
         id="g184">
        <g
           id="g186">
          <g
             id="g192">
            <g
               id="g194">
              <path
                 d="m 748.365,712.997 h 7.474 v 59.972 h -7.474 z"
                 style="fill:url(#linearGradient210);stroke:none"
                 id="path212" />
            </g>
          </g>
        </g>
      </g>
      <g
         id="g214">
        <g
           id="g216">
          <g
             id="g222">
            <g
               id="g224">
              <path
                 d="m 836.848,772.969 v -29.985 c 0,-7.041 0.087,-15.645 0.26,-22.686 v 0 l -28.247,52.671 h -11.473 v -59.972 h 7.475 v 29.987 c 0,7.04 -0.087,15.644 -0.26,22.685 v 0 l 28.246,-52.672 h 11.473 l -0.173,59.972 z"
                 style="fill:url(#linearGradient240);stroke:none"
                 id="path242" />
            </g>
          </g>
        </g>
      </g>
      <g
         id="g244">
        <g
           id="g246">
          <g
             id="g252">
            <g
               id="g254">
              <path
                 d="m 885.873,772.969 v -59.972 h 39.893 v 6.085 h -32.42 v 20.86 h 28.943 v 6.084 h -28.943 v 20.859 h 31.552 v 6.084 z"
                 style="fill:url(#linearGradient270);stroke:none"
                 id="path272" />
            </g>
          </g>
        </g>
      </g>
      <g
         id="g274">
        <g
           id="g276">
          <g
             id="g282">
            <g
               id="g284">
              <path
                 d="m 1007.821,772.969 v -59.972 h 17.818 c 3.215,0 4.606,0 7.647,0.348 v 0 c 13.907,1.738 24.164,12.69 24.164,30.334 v 0 c 0,17.905 -9.822,27.205 -23.728,28.942 v 0 c -3.042,0.348 -4.433,0.348 -7.649,0.348 v 0 z m 7.474,-6.084 h 10.344 c 3.128,0 5.387,-0.087 7.301,-0.434 v 0 c 10.169,-1.652 16.339,-9.474 16.339,-22.772 v 0 c 0,-14.168 -6.606,-22.512 -16.774,-24.163 v 0 c -1.911,-0.348 -4.172,-0.434 -7.301,-0.434 v 0 h -9.909 z"
                 style="fill:url(#linearGradient300);stroke:none"
                 id="path302" />
            </g>
          </g>
        </g>
      </g>
      <g
         id="g304">
        <g
           id="g306">
          <g
             id="g312">
            <g
               id="g314">
              <path
                 d="m 1095.525,772.969 v -59.972 h 39.893 v 6.085 h -32.419 v 20.86 h 28.943 v 6.084 h -28.943 v 20.859 h 31.551 v 6.084 z"
                 style="fill:url(#linearGradient330);stroke:none"
                 id="path332" />
            </g>
          </g>
        </g>
      </g>
      <g
         id="g334">
        <g
           id="g336">
          <g
             id="g342">
            <g
               id="g344">
              <path
                 d="m 1172.622,772.969 v -59.972 h 39.894 v 6.085 h -32.42 v 53.887 z"
                 style="fill:url(#linearGradient360);stroke:none"
                 id="path362" />
            </g>
          </g>
        </g>
      </g>
      <g
         id="g364">
        <g
           id="g366">
          <g
             id="g372">
            <g
               id="g374">
              <path
                 d="m 1248.677,712.997 h 7.474 v 59.972 h -7.474 z"
                 style="fill:url(#linearGradient390);stroke:none"
                 id="path392" />
            </g>
          </g>
        </g>
      </g>
      <g
         id="g394">
        <g
           id="g396">
          <g
             id="g402">
            <g
               id="g404">
              <path
                 d="m 1336.117,772.969 -18.426,-54.322 -17.817,54.322 h -8.084 l 20.685,-59.972 h 10.082 l 21.556,59.972 z"
                 style="fill:url(#linearGradient420);stroke:none"
                 id="path422" />
            </g>
          </g>
        </g>
      </g>
      <g
         id="g424">
        <g
           id="g426">
          <g
             id="g432">
            <g
               id="g434">
              <path
                 d="m 1377.841,772.969 v -59.972 h 39.893 v 6.085 h -32.42 v 20.86 h 28.944 v 6.084 h -28.944 v 20.859 h 31.551 v 6.084 z"
                 style="fill:url(#linearGradient450);stroke:none"
                 id="path452" />
            </g>
          </g>
        </g>
      </g>
      <g
         id="g454">
        <g
           id="g456">
          <g
             id="g462">
            <g
               id="g464">
              <path
                 d="m 1454.939,772.969 v -59.972 h 7.474 v 25.815 h 11.299 c 1.391,0 2.869,0 4.259,-0.087 v 0 c 5.911,-0.435 8.258,-4.52 8.952,-10.691 v 0 c 0.783,-7.388 1.565,-11.212 3.217,-15.037 v 0 h 8.256 c -2.434,3.217 -3.302,7.909 -3.997,15.732 v 0 c -0.521,5.998 -2.87,11.473 -7.736,13.733 v 0 c 5.563,1.738 10.69,6.258 10.69,14.167 v 0 c 0,10.083 -6.256,14.863 -14.95,15.992 v 0 c -2.693,0.348 -4.78,0.348 -7.821,0.348 v 0 z m 7.474,-6.084 h 12.169 c 2.694,0 4.346,-0.087 5.997,-0.347 v 0 c 5.562,-0.869 8.779,-3.911 8.779,-10.604 v 0 c 0,-6.779 -4.086,-10.343 -9.648,-10.865 v 0 c -1.652,-0.173 -3.129,-0.173 -5.823,-0.173 v 0 h -11.474 z"
                 style="fill:url(#linearGradient480);stroke:none"
                 id="path482" />
            </g>
          </g>
        </g>
      </g>
      <g
         id="g484">
        <g
           id="g486">
          <g
             id="g492">
            <g
               id="g494">
              <path
                 d="m 1569.236,772.969 -16.167,-29.116 -16.688,29.116 h -8.604 l 21.208,-36.331 v -23.641 h 7.475 v 23.641 l 21.207,36.331 z"
                 style="fill:url(#linearGradient510);stroke:none"
                 id="path512" />
            </g>
          </g>
        </g>
      </g>
      <g
         id="g514">
        <g
           id="g516">
          <g
             id="g522">
            <g
               id="g524">
              <path
                 d="m 1745.36,810.878 c 0,-2.058 1.67,-3.727 3.727,-3.727 v 0 c 2.057,0 3.726,1.669 3.726,3.727 v 0 c 0,2.058 -1.669,3.726 -3.726,3.726 v 0 c -2.057,0 -3.727,-1.668 -3.727,-3.726"
                 style="fill:url(#linearGradient540);stroke:none"
                 id="path542" />
            </g>
          </g>
        </g>
      </g>
      <g
         id="g544">
        <g
           id="g546">
          <g
             id="g552">
            <g
               id="g554">
              <path
                 d="m 1764.709,832.33 c 0,-16.045 10.549,-25.919 27.325,-26.002 v 0 c 9.789,0 18.504,4.057 22.807,10.678 v 0 l 0.878,11.34 -0.727,-0.008 c -0.891,-13.568 -10.583,-19.559 -22.928,-19.448 v 0 c -13.167,0.12 -21.368,9.117 -21.368,23.436 v 0 c 0,14.586 8.187,23.525 21.301,23.525 v 0 c 10.268,0 17.998,-4.081 20.535,-14.228 v 0 h 0.728 l -1.83,11.697 c -5.111,3.107 -12.496,5.012 -19.396,5.012 v 0 c -16.764,0 -27.325,-9.88 -27.325,-26.002"
                 style="fill:url(#linearGradient570);stroke:none"
                 id="path572" />
            </g>
          </g>
        </g>
      </g>
      <g
         id="g574">
        <g
           id="g576">
          <g
             id="g582">
            <g
               id="g584">
              <path
                 d="m 1828.528,856.448 v -1.497 -5.733 l 0.888,0.011 v 1.274 c 0,2.298 1.589,4.168 4.052,4.253 v 0 h 24.674 l -30.864,-46.499 -0.015,-0.773 h 39.693 l 4.468,11.831 -0.886,-0.001 c -2.325,-5.404 -5.165,-9.221 -13.115,-9.346 v 0 h -22.748 l 31.472,47.642 v 0.718 c -1.043,-0.512 -5.809,-1.068 -9.364,-1.068 v 0 h -19.033 c -3.288,0.066 -7.787,0.71 -9.222,1.278 v 0 z"
                 style="fill:url(#linearGradient600);stroke:none"
                 id="path602" />
            </g>
          </g>
        </g>
      </g>
      <g
         id="g604">
        <g
           id="g606"
           clip-path="url(#clipPath610)">
          <g
             id="g612">
            <g
               id="g614" />
            <g
               id="g626">
              <g
                 clip-path="url(#clipPath618)"
                 opacity="0.5"
                 id="g624">
                <g
                   transform="translate(332.104,1146.3931)"
                   id="g622">
                  <path
                     d="m 0,0 c 62.607,-6.826 125.856,-5.47 188.131,3.882 3.171,0.477 1.824,5.295 -1.329,4.822 C 124.993,-0.579 62.129,-1.774 0,5 -3.194,5.349 -3.169,0.346 0,0"
                     style="fill:#ffffff;fill-opacity:1;fill-rule:nonzero;stroke:none"
                     id="path620" />
                </g>
              </g>
            </g>
          </g>
          <g
             id="g628">
            <g
               id="g630" />
            <g
               id="g642">
              <g
                 clip-path="url(#clipPath634)"
                 opacity="0.5"
                 id="g640">
                <g
                   transform="translate(517.8022,1116.2964)"
                   id="g638">
                  <path
                     d="m 0,0 c -18.415,-21.332 -44.496,-35.044 -72.579,-37.79 -3.173,-0.31 -3.206,-5.313 0,-5 29.38,2.873 56.8,16.88 76.115,39.254 C 5.629,-1.111 2.107,2.441 0,0"
                     style="fill:#ffffff;fill-opacity:1;fill-rule:nonzero;stroke:none"
                     id="path636" />
                </g>
              </g>
            </g>
          </g>
        </g>
      </g>
    </g>
  </g>
  <g
     id="g646"
     inkscape:groupmode="layer"
     inkscape:label="Page 2"
     transform="matrix(1.3333333,0,0,-1.3333333,2568.565,1917.7173)" />
  <g
     id="g650"
     inkscape:groupmode="layer"
     inkscape:label="Page 3"
     transform="matrix(1.3333333,0,0,-1.3333333,5255.2316,1917.7173)" />
</svg>
